<?xml version="1.0" encoding="UTF-8"?><svg xmlns="http://www.w3.org/2000/svg" viewBox="0 0 126.04 78.48"><defs><style>.d{fill:#4d4545;}</style></defs><g id="a"/><g id="b"><g id="c"><path class="d" d="M121.02,29.6C118.85,12.4,111.01,0,101.39,0h-13.31c-.22,0-.41,.07-.61,.12-.45-.05-.89-.12-1.35-.12-9.43,0-17.3,10.99-19.96,27.58h-6.1C57.48,11.44,49.61,0,40.07,0h-13.82c-.16,0-.3,.06-.45,.09-.32-.03-.64-.09-.97-.09C15.34,0,7.33,12.08,5.09,29.53c-3.07,2.1-5.09,5.67-5.09,9.71s2.03,7.62,5.09,9.71c2.23,17.45,10.25,29.53,19.73,29.53,.33,0,.65-.06,.97-.09,.15,.03,.29,.09,.45,.09h13.82c9.55,0,17.41-11.44,19.99-27.58h6.1c2.66,16.59,10.53,27.58,19.96,27.58,.46,0,.9-.07,1.35-.12,.2,.05,.4,.12,.61,.12h13.31c9.62,0,17.46-12.4,19.62-29.6,3.13-2.15,5.02-5.73,5.02-9.64s-1.89-7.49-5.02-9.64ZM8.21,45.07c-1.95-1.16-3.26-3.34-3.26-5.83s1.31-4.68,3.26-5.83c.12-.04,.23-.09,.35-.14,.93-.49,1.89-.74,2.86-.74h10.13c.35,1.03,.81,3.31,.81,6.72s-.46,5.69-.81,6.72H11.41c-.96,0-1.92-.25-2.87-.74-.11-.06-.22-.11-.34-.14Zm2.17,5.78c.33,.03,.67,.05,1.01,.05h11.2c4.1,0,4.71-7.31,4.71-11.66s-.61-11.66-4.71-11.66H11.39c-.34,0-.68,.01-1.01,.05C12.6,14.46,18.53,4.95,24.82,4.95c7.44,0,15.41,13.78,15.41,34.3s-7.97,34.29-15.41,34.29c-6.29,0-12.22-9.52-14.45-22.68Zm45.64-11.62v.03c0,2.89-.2,5.87-.58,8.84,0,.1-.02,.19-.02,.29-1.92,14.31-8.17,25.13-15.35,25.13h-3.51c6.37-6.65,10.59-19.38,10.59-34.29s-4.22-27.64-10.59-34.3h3.51c7.18,0,13.43,10.82,15.35,25.13,0,.1,0,.19,.02,.29,.39,2.97,.58,5.95,.58,8.84v.03Zm4.65,6.72c.19-2.18,.29-4.42,.29-6.72s-.1-4.54-.29-6.72h22.14c.36,1.01,.84,3.29,.84,6.72s-.48,5.7-.84,6.72h-22.14Zm10.5,4.95h12.64c4.16,0,4.78-7.31,4.78-11.66s-.62-11.66-4.78-11.66h-12.64c2.31-13.27,8.39-22.63,14.95-22.63,8.64,0,15.95,15.71,15.95,34.3s-7.3,34.29-15.95,34.29c-6.55,0-12.63-9.36-14.95-22.63Zm45.04-3.77c-.01,.14-.02,.28,0,.43-1.78,15.83-8.49,25.97-14.81,25.97h-3.34c6.16-6.65,10.24-19.38,10.24-34.29s-4.08-27.64-10.24-34.3h3.34c6.33,0,13.03,10.14,14.81,25.97,0,.14,0,.28,0,.42,.29,2.63,.44,5.28,.44,7.9s-.15,5.27-.44,7.9Z"/></g></g></svg>