<svg width="17" height="17" viewBox="0 0 17 17" fill="none" xmlns="http://www.w3.org/2000/svg">
<path d="M8.49785 5.96452C7.02888 5.96452 5.8301 7.16333 5.8301 8.63232C5.8301 10.1013 7.02888 11.3001 8.49785 11.3001C9.96681 11.3001 11.1656 10.1013 11.1656 8.63232C11.1656 7.16333 9.96681 5.96452 8.49785 5.96452ZM16.4991 8.63232C16.4991 7.52758 16.5091 6.43284 16.4471 5.33009C16.385 4.04923 16.0928 2.91246 15.1562 1.97583C14.2176 1.03719 13.0829 0.746997 11.802 0.684955C10.6973 0.622913 9.60258 0.63292 8.49985 0.63292C7.39512 0.63292 6.30041 0.622913 5.19768 0.684955C3.91684 0.746997 2.78009 1.03919 1.84348 1.97583C0.904861 2.91446 0.61467 4.04923 0.552629 5.33009C0.490589 6.43484 0.500595 7.52958 0.500595 8.63232C0.500595 9.73507 0.490589 10.8318 0.552629 11.9346C0.61467 13.2154 0.906862 14.3522 1.84348 15.2888C2.78209 16.2275 3.91684 16.5177 5.19768 16.5797C6.30241 16.6417 7.39713 16.6317 8.49985 16.6317C9.60458 16.6317 10.6993 16.6417 11.802 16.5797C13.0829 16.5177 14.2196 16.2255 15.1562 15.2888C16.0948 14.3502 16.385 13.2154 16.4471 11.9346C16.5111 10.8318 16.4991 9.73707 16.4991 8.63232ZM8.49785 12.7371C6.22636 12.7371 4.39315 10.9039 4.39315 8.63232C4.39315 6.36079 6.22636 4.52755 8.49785 4.52755C10.7693 4.52755 12.6025 6.36079 12.6025 8.63232C12.6025 10.9039 10.7693 12.7371 8.49785 12.7371ZM12.7707 5.31808C12.2403 5.31808 11.812 4.8898 11.812 4.35944C11.812 3.82908 12.2403 3.40079 12.7707 3.40079C13.301 3.40079 13.7293 3.82908 13.7293 4.35944C13.7294 4.48537 13.7048 4.6101 13.6566 4.72648C13.6085 4.84286 13.5379 4.94861 13.4489 5.03766C13.3598 5.12671 13.2541 5.19731 13.1377 5.24543C13.0213 5.29355 12.8966 5.31824 12.7707 5.31808Z" fill="#A88F61"/>
</svg>
