<svg width="17" height="17" viewBox="0 0 17 17" fill="none" xmlns="http://www.w3.org/2000/svg">
<path d="M15.3189 0.632324H1.68111C1.36786 0.632324 1.06744 0.756763 0.84594 0.978264C0.624438 1.19977 0.5 1.50019 0.5 1.81344V15.4512C0.5 15.7645 0.624438 16.0649 0.84594 16.2864C1.06744 16.5079 1.36786 16.6323 1.68111 16.6323H15.3189C15.6321 16.6323 15.9326 16.5079 16.1541 16.2864C16.3756 16.0649 16.5 15.7645 16.5 15.4512V1.81344C16.5 1.50019 16.3756 1.19977 16.1541 0.978264C15.9326 0.756763 15.6321 0.632324 15.3189 0.632324ZM5.26889 14.2623H2.86333V6.62121H5.26889V14.2623ZM4.06444 5.56232C3.79158 5.56079 3.52528 5.47845 3.29916 5.32572C3.07304 5.17298 2.89723 4.95668 2.79392 4.70412C2.69061 4.45156 2.66443 4.17405 2.71869 3.90663C2.77294 3.6392 2.9052 3.39384 3.09877 3.20151C3.29234 3.00918 3.53854 2.8785 3.80631 2.82596C4.07408 2.77343 4.35141 2.80139 4.6033 2.90631C4.85519 3.01124 5.07036 3.18844 5.22164 3.41553C5.37293 3.64263 5.45355 3.90945 5.45333 4.18232C5.45591 4.36501 5.42167 4.54635 5.35267 4.71553C5.28368 4.8847 5.18132 5.03826 5.05171 5.16704C4.92211 5.29581 4.7679 5.39718 4.59828 5.46509C4.42867 5.533 4.24711 5.56607 4.06444 5.56232ZM14.1356 14.269H11.7311V10.0945C11.7311 8.86344 11.2078 8.48344 10.5322 8.48344C9.81889 8.48344 9.11889 9.02121 9.11889 10.1257V14.269H6.71333V6.62677H9.02667V7.68566H9.05778C9.29 7.21566 10.1033 6.41233 11.3444 6.41233C12.6867 6.41233 14.1367 7.20899 14.1367 9.54232L14.1356 14.269Z" fill="#A88F61"/>
</svg>
