<svg width="149" height="20" viewBox="0 0 149 20" fill="none" xmlns="http://www.w3.org/2000/svg">
<path d="M15.144 19.1442H17.8426L10.5461 0H7.29649L0 19.1442H2.74036L4.41421 14.5447H13.4639L15.144 19.1442ZM5.18018 12.426L8.80547 2.45266H9.05383L12.6937 12.426H5.18018Z" fill="white"/>
<path d="M30.9836 16.8954V0H28.356V19.1442H42.9656V16.8954H30.9836Z" fill="white"/>
<path d="M67.8003 0V8.43794H56.0457V0H53.4014V19.1442H56.0457V10.6759H67.8003V19.1442H70.4258V0H67.8003Z" fill="white"/>
<path d="M96.0833 19.1442H98.7819L91.4854 0H88.2358L80.9393 19.1442H83.6797L85.3535 14.5447H94.4032L96.0833 19.1442ZM86.1195 12.426L89.7448 2.45266H89.9932L93.6331 12.426H86.1195Z" fill="white"/>
<path d="M122.966 0H119.981L114.972 7.79604L109.957 0H106.972L113.657 10.0253V19.1442H116.302V10.0145L122.966 0Z" fill="white"/>
<path d="M146.301 19.1442H149L141.703 0H138.454L131.157 19.1442H133.898L135.572 14.5447H144.621L146.301 19.1442ZM136.338 12.426L139.963 2.45266H140.211L143.851 12.426H136.338Z" fill="white"/>
</svg>
