<svg width="171" height="44" viewBox="0 0 171 44" fill="none" xmlns="http://www.w3.org/2000/svg">
<path d="M17.38 21.1594H20.4771L12.1032 0H8.37383L0 21.1594H3.14498L5.06597 16.0757H15.4518L17.38 21.1594ZM5.94504 13.7339L10.1056 2.71084H10.3906L14.568 13.7339H5.94504Z" fill="#A88F61"/>
<path d="M35.5584 18.6739V0H32.5427V21.1594H49.3095V18.6739H35.5584Z" fill="#A88F61"/>
<path d="M77.811 0V9.32614H64.3209V0H61.2861V21.1594H64.3209V11.7997H77.811V21.1594H80.8243V0H77.811Z" fill="#A88F61"/>
<path d="M110.27 21.1594H113.367L104.993 0H101.264L92.8901 21.1594H96.0351L97.9561 16.0757H108.342L110.27 21.1594ZM98.8352 13.7339L102.996 2.71084H103.281L107.458 13.7339H98.8352Z" fill="#A88F61"/>
<path d="M141.122 0H137.697L131.948 8.61667L126.192 0H122.767L130.439 11.0806V21.1594H133.474V11.0686L141.122 0Z" fill="#A88F61"/>
<path d="M167.903 21.1594H171L162.626 0H158.897L150.523 21.1594H153.668L155.589 16.0757H165.975L167.903 21.1594ZM156.468 13.7339L160.629 2.71084H160.914L165.091 13.7339H156.468Z" fill="#A88F61"/>
<path d="M16.865 43.1786H17.7872V40.3263H19.8207C21.3034 40.3263 20.8699 42.2942 21.5669 43.1786H22.5513C21.8783 42.3253 22.101 40.753 21.1669 40.1945C22.2447 40.149 22.9753 39.5162 22.9753 38.4568C22.9753 37.4957 22.295 36.6975 20.8291 36.6975H16.865V43.1786ZM17.7872 39.6169V37.4285H20.6974C21.6531 37.4285 22.0891 37.8648 22.0891 38.5263C22.0891 39.1878 21.6531 39.6169 20.6974 39.6169H17.7872Z" fill="#A88F61"/>
<path d="M32.1205 42.4164V40.2065H34.6835V39.5018H32.1205V37.4549H36.238V36.6975H31.1984V43.1786H36.4799V42.4164H32.1205Z" fill="#A88F61"/>
<path d="M47.3383 43.2647C49.1611 43.2647 50.4473 42.7638 50.4473 41.2466C50.4473 39.5304 48.9144 39.4466 47.506 39.4082C46.2796 39.3794 45.2281 39.3938 45.2281 38.4471C45.2281 37.5938 46.1071 37.2966 47.2593 37.2966C48.4066 37.2966 49.3048 37.5914 49.3647 38.4998H50.2725C50.2222 37.1887 49.0461 36.6111 47.2569 36.6111C45.5658 36.6111 44.3203 37.1288 44.3203 38.483C44.3203 40.1848 46.0736 40.1776 47.4173 40.1968C48.5719 40.2112 49.5108 40.2495 49.5108 41.2538C49.5108 42.2293 48.5766 42.5649 47.3527 42.5649C46.1862 42.5649 45.1538 42.2581 45.1059 41.1891H44.1598C44.2532 42.7806 45.5562 43.2647 47.3383 43.2647Z" fill="#A88F61"/>
<path d="M58.7822 43.1786H59.7044V36.6975H58.7822V43.1786Z" fill="#A88F61"/>
<path d="M68.4902 43.1786H71.5921C73.7382 43.1786 74.8065 41.8364 74.8065 39.9333C74.8065 38.0373 73.7382 36.6975 71.5921 36.6975H68.4902V43.1786ZM69.4124 42.4164V37.4549H71.561C73.1155 37.4549 73.8532 38.4352 73.8532 39.9333C73.8532 41.4409 73.1155 42.4164 71.561 42.4164H69.4124Z" fill="#A88F61"/>
<path d="M84.0698 42.4164V40.2065H86.6327V39.5018H84.0698V37.4549H88.1872V36.6975H83.1476V43.1786H88.4291V42.4164H84.0698Z" fill="#A88F61"/>
<path d="M101.707 36.6975V42.1096L97.7067 36.6975H96.5857V43.1786H97.4983V37.7641L101.494 43.1786H102.622V36.6975H101.707Z" fill="#A88F61"/>
<path d="M114.579 43.2647C116.406 43.2647 117.846 42.3299 118.169 40.6665H117.281C116.979 41.8793 115.913 42.5025 114.579 42.5025C113.017 42.5025 111.812 41.6252 111.812 39.9331C111.812 38.2553 113.017 37.3732 114.579 37.3732C115.851 37.3732 116.888 37.9533 117.233 39.051H118.14C117.757 37.4883 116.346 36.6086 114.579 36.6086C112.514 36.6086 110.936 37.8238 110.936 39.9331C110.936 42.0495 112.514 43.2647 114.579 43.2647Z" fill="#A88F61"/>
<path d="M126.42 43.1786H127.343V36.6975H126.42V43.1786Z" fill="#A88F61"/>
<path d="M140.732 43.1786H141.683L139.118 36.6975H137.975L135.41 43.1786H136.373L136.962 41.6206H140.143L140.732 43.1786ZM137.23 40.904L138.504 37.5268H138.593L139.872 40.904H137.23Z" fill="#A88F61"/>
<path d="M150.67 42.4164V36.6975H149.748V43.1786H154.883V42.4164H150.67Z" fill="#A88F61"/>
</svg>
