<?xml version="1.0" encoding="UTF-8"?><svg xmlns="http://www.w3.org/2000/svg" viewBox="0 0 101.04 112.5"><defs><style>.d{fill:#4d4545;}</style></defs><g id="a"/><g id="b"><g id="c"><g><path class="d" d="M99.25,97.2c-5.44,0-8.27-2.06-10.77-3.89-2.37-1.73-4.42-3.22-8.73-3.22s-6.36,1.49-8.73,3.22c-2.5,1.82-5.34,3.89-10.78,3.89s-8.26-2.07-10.76-3.89c-2.37-1.73-4.42-3.22-8.73-3.22s-6.36,1.49-8.72,3.22c-2.5,1.82-5.33,3.89-10.76,3.89s-8.26-2.07-10.77-3.89c-2.36-1.73-4.41-3.22-8.72-3.22-.98,0-1.78-.83-1.78-1.86s.8-1.86,1.78-1.86c5.44,0,8.26,2.06,10.77,3.89,2.36,1.73,4.41,3.21,8.72,3.21s6.35-1.49,8.72-3.21c2.5-1.82,5.33-3.89,10.76-3.89s8.26,2.06,10.77,3.89c2.37,1.73,4.41,3.21,8.72,3.21s6.36-1.49,8.74-3.21c2.5-1.82,5.34-3.89,10.77-3.89s8.27,2.06,10.77,3.89c2.37,1.73,4.42,3.21,8.73,3.21,.98,0,1.79,.84,1.79,1.87s-.8,1.86-1.79,1.86"/><path class="d" d="M99.25,112.5c-5.44,0-8.27-2.06-10.77-3.89-2.37-1.73-4.42-3.21-8.73-3.21s-6.36,1.49-8.73,3.21c-2.5,1.82-5.34,3.89-10.78,3.89s-8.26-2.07-10.76-3.89c-2.37-1.73-4.42-3.21-8.73-3.21s-6.36,1.49-8.72,3.21c-2.5,1.82-5.33,3.89-10.76,3.89s-8.26-2.07-10.77-3.89c-2.36-1.73-4.41-3.21-8.72-3.21-.98,0-1.78-.84-1.78-1.87s.8-1.86,1.78-1.86c5.44,0,8.26,2.06,10.77,3.89,2.36,1.73,4.41,3.21,8.72,3.21s6.35-1.49,8.72-3.21c2.5-1.82,5.33-3.89,10.76-3.89s8.26,2.06,10.77,3.89c2.37,1.73,4.41,3.21,8.72,3.21s6.36-1.49,8.74-3.21c2.5-1.82,5.34-3.89,10.77-3.89s8.27,2.06,10.77,3.89c2.37,1.73,4.42,3.21,8.73,3.21,.98,0,1.79,.84,1.79,1.87s-.8,1.86-1.79,1.86"/><path class="d" d="M27.4,33.59c-1.07,0-1.94-.89-1.96-2.01,0-.52-.05-12.68,12.35-24.88l-1.09-4.11c-.29-1.09,.32-2.22,1.36-2.52,1.04-.3,2.12,.34,2.41,1.43l1.4,5.32c.2,.75-.02,1.55-.58,2.07-6.23,5.84-9.14,11.67-10.49,15.54-1.46,4.19-1.46,7.05-1.46,7.08,0,1.13-.86,2.05-1.93,2.07h-.02"/><path class="d" d="M55.37,67.56c-.86,0-1.65-.59-1.88-1.5l-7.44-28.12c-.29-1.09,.32-2.22,1.36-2.52,1.04-.3,2.12,.34,2.41,1.43l7.44,28.12c.29,1.09-.33,2.22-1.36,2.52-.18,.05-.35,.07-.52,.07"/><path class="d" d="M34.6,35.9c-.6,0-1.17-.04-1.71-.11-3.88-.49-6.54-2.51-6.65-2.59-.87-.67-1.06-1.95-.42-2.86,.64-.91,1.86-1.11,2.73-.45,.34,.26,7.97,5.79,15.39-3.31,.7-.86,1.94-.96,2.76-.23,.83,.73,.92,2.03,.22,2.89-4.33,5.32-8.86,6.66-12.32,6.66"/><path class="d" d="M16.53,39.44c-2.53,0-4.6-.78-5.88-1.63-.91-.61-1.17-1.88-.59-2.83,.58-.94,1.79-1.22,2.69-.62,.28,.18,6.23,3.83,13.19-4.19,.73-.84,1.96-.9,2.76-.14,.8,.76,.86,2.06,.13,2.89-4.33,4.99-8.77,6.52-12.31,6.52"/><path class="d" d="M68.34,24.32c-1.85,0-3.93-.31-6.22-1.03-1.04-.33-1.62-1.47-1.31-2.56,.31-1.08,1.4-1.69,2.44-1.36,10.07,3.18,13.33-3.43,13.36-3.49,.48-1.01,1.66-1.43,2.63-.93,.97,.5,1.36,1.73,.89,2.74-1.26,2.66-5.1,6.63-11.78,6.63"/><path class="d" d="M11.72,38.14s-.1,0-.15,0c-1.08-.08-1.88-1.07-1.81-2.2,.42-5.87,3.23-11.67,8.34-17.25,5.81-6.33,13.19-10.92,21.37-13.29,8.17-2.37,16.77-2.4,24.86-.1,7.13,2.03,12.38,5.5,15.63,10.31,.62,.92,.42,2.2-.47,2.85-.88,.65-2.1,.43-2.72-.49-2.71-4.01-7.24-6.94-13.46-8.71-7.41-2.11-15.29-2.08-22.79,.09-7.5,2.17-14.27,6.38-19.59,12.18-4.47,4.87-6.91,9.82-7.26,14.72-.07,1.07-.93,1.89-1.95,1.89"/><path class="d" d="M47.03,26.28c8.18,2.4,12.09-2.62,13.37-4.81-1.65-2.27-6.89-8.33-17.64-11.34l4.27,16.15Zm4.18,4.75c-1.89,0-4.02-.34-6.4-1.18-.62-.22-1.09-.74-1.26-1.39l-5.44-20.53c-.18-.68,0-1.41,.45-1.94,.46-.52,1.14-.76,1.81-.62,17.55,3.54,23.75,14.48,24.01,14.94,.31,.55,.35,1.23,.11,1.82-.05,.13-1.35,3.29-4.43,5.81-1.94,1.58-4.85,3.11-8.85,3.11"/><path class="d" d="M26.75,64.94h13.28v-11.74h-13.28v11.74Zm15.24,4.09H24.79c-1.08,0-1.96-.91-1.96-2.05v-15.84c0-1.13,.88-2.05,1.96-2.05h17.2c1.08,0,1.96,.92,1.96,2.05v15.84c0,1.13-.88,2.05-1.96,2.05"/><path class="d" d="M21.49,77.74c-1.08,0-1.96-.91-1.96-2.05v-8.71c0-1.13,.88-2.05,1.96-2.05h7.21c1.08,0,1.96,.91,1.96,2.05s-.88,2.05-1.96,2.05h-5.25v6.66c0,1.13-.88,2.05-1.96,2.05"/><path class="d" d="M45.29,77.74c-1.08,0-1.96-.91-1.96-2.05v-6.66h-5.25c-1.08,0-1.96-.91-1.96-2.05s.88-2.05,1.96-2.05h7.21c1.08,0,1.96,.91,1.96,2.05v8.71c0,1.13-.88,2.05-1.96,2.05"/><path class="d" d="M71.54,64.19h13.28v-11.74h-13.28v11.74Zm15.24,4.09h-17.2c-1.08,0-1.96-.91-1.96-2.05v-15.84c0-1.13,.88-2.05,1.96-2.05h17.2c1.08,0,1.96,.92,1.96,2.05v15.84c0,1.13-.88,2.05-1.96,2.05"/><path class="d" d="M66.29,77c-1.08,0-1.96-.91-1.96-2.05v-8.71c0-1.13,.88-2.05,1.96-2.05h7.21c1.08,0,1.96,.91,1.96,2.05s-.88,2.05-1.96,2.05h-5.25v6.66c0,1.13-.88,2.05-1.96,2.05"/><path class="d" d="M90.08,77c-1.08,0-1.96-.91-1.96-2.05v-6.66h-5.25c-1.08,0-1.96-.91-1.96-2.05s.88-2.05,1.96-2.05h7.21c1.08,0,1.96,.91,1.96,2.05v8.71c0,1.13-.88,2.05-1.96,2.05"/></g></g></g></svg>