<?xml version="1.0" encoding="UTF-8"?><svg xmlns="http://www.w3.org/2000/svg" viewBox="0 0 86.92 89.99"><defs><style>.d{fill:#4d4545;}</style></defs><g id="a"/><g id="b"><g id="c"><path class="d" d="M65.95,89.99h-24.46c-.43,0-.86-.03-1.28-.1H21.42c-3.63,0-6.75-2.08-8.15-5.43-1.4-3.35-.68-7.02,1.86-9.61l11.32-11.62c.74-.75,1.14-1.72,1.14-2.76v-6.96c-.2,.32-.36,.62-.51,.9-.75,1.38-1.78,3.27-5.01,3.27H8.74c-4.26,0-7.87-2.88-8.6-6.84-.45-2.47,.2-4.99,1.8-6.91,1.6-1.92,3.95-3.02,6.44-3.02h7.86c.39-.54,.66-.97,1.05-1.45l6.14-8.11c1.52-1.88,5.67-5.33,10.87-5.33h.98c-3.69-2.59-6.1-6.88-6.1-11.72,0-7.89,6.41-14.31,14.29-14.31s14.29,6.42,14.29,14.31c0,4.84-2.41,9.13-6.1,11.72h.99c4.78,0,9.17,3.23,10.81,5.27l6.23,8.23c.35,.43,.63,.86,.86,1.24l7.65,.16c4.25,0,7.87,2.88,8.6,6.84,.45,2.47-.21,4.99-1.81,6.91-1.6,1.92-3.95,3.02-6.44,3.02h-12.22c-2.68,0-5.18-1.2-6.87-3.28l-.12-.21v6.29c0,1.03,.4,2.01,1.13,2.74l11.33,11.63c1.66,1.68,2.54,3.83,2.56,6.06,.05,.19,.08,.39,.08,.59,0,4.68-3.8,8.48-8.47,8.48ZM30.06,42.37c.23,0,.45,.03,.68,.1,1.06,.3,1.8,1.27,1.8,2.38v15.64c0,2.34-.91,4.55-2.55,6.22l-11.3,11.61h-.01c-1.14,1.17-1.45,2.75-.83,4.25s1.97,2.39,3.58,2.39h12.32c-.47-1.05-.73-2.22-.73-3.44,0-4.68,3.8-8.49,8.48-8.49h14.73c1.37,0,2.47,1.11,2.47,2.47s-1.11,2.66-2.47,2.66h-14.73c-1.84,0-3.35,1.5-3.35,3.35s1.5,3.35,3.35,3.35h24.46c.22,0,.43-.02,.64-.06,1.12-.31,2-1.1,2.48-2.24,.08-.19,.14-.38,.19-.57,.02-.15,.03-.31,.03-.47,0-.23,.03-.44,.09-.66-.04-.93-.43-1.81-1.14-2.53l-11.33-11.63c-1.63-1.65-2.54-3.86-2.54-6.21v-15.64c0-1.13,.76-2.11,1.84-2.39,1.08-.31,2.23,.2,2.78,1.18l4.52,8.02c.51,.57,1.61,1.1,2.79,1.1h12.22c1.01,0,1.98-.45,2.64-1.25,.67-.8,.93-1.81,.74-2.85-.29-1.59-1.89-2.79-3.73-2.79h-7.51c-2.55,0-3.54-1.21-4.32-2.46-.15-.24-.33-.52-.58-.84l-6.23-8.23c-.92-1.13-3.95-3.37-6.92-3.37h-18.33c-3.18,0-6.07,2.31-6.97,3.42l-6.14,8.11c-.29,.37-.47,.65-.62,.89-.79,1.25-1.77,2.46-4.33,2.46h-7.86c-1.02,0-1.98,.45-2.64,1.25-.67,.8-.93,1.81-.73,2.85,.29,1.59,1.89,2.79,3.73,2.79h13.33c.31-.02,.52-.41,.67-.7,.19-.35,.4-.73,.66-1.14l4.56-7.37c.46-.74,1.26-1.17,2.1-1.17Zm-13.16,34.22h0ZM43.46,4.95c-5.15,0-9.34,4.2-9.34,9.36s4.19,9.36,9.34,9.36,9.34-4.2,9.34-9.36-4.19-9.36-9.34-9.36Z"/></g></g></svg>