<?xml version="1.0" encoding="UTF-8"?><svg xmlns="http://www.w3.org/2000/svg" viewBox="0 0 98.41 112"><defs><style>.d{fill:#4d4545;}</style></defs><g id="a"/><g id="b"><g id="c"><path class="d" d="M90.36,112c-.11,0-.23,0-.34,0-4.44-.2-7.34-3.62-7.37-8.7-.06-4.89-.27-10.28-.41-13.35-4.55,.77-13.79,2.17-18.9,1.66l-10.42,8.76-15.52,9.5c-1.37,1.16-3.38,1.76-5.46,1.53-2.08-.24-3.94-1.3-5.24-2.99-2.59-3.39-2.12-8.22,1.09-11.01,.09-.08,.29-.25,.4-.31l11.84-7.27,14.27-14.28c.58-2.21,1.41-4.93,1.86-6.36l-1.65-2.62c-1.26-2.5-1.23-5.01-.05-7.09l7.83-13.79c2.31-4.19,8.44-6.3,13.97-4.77,6.47,1.78,9.64,6.93,8.49,13.78-.3,1.78-1.61,6.39-2.99,11.28-.7,2.47-1.42,4.99-1.96,7,2.97-.29,7.32-.71,9.78-.86,2.52-.16,4.64,.56,6.24,2.06,1.65,1.55,2.55,3.85,2.55,6.49,0,2.02,.01,4.08,.03,6.14,.05,6.29,.1,12.79-.39,18.77-.29,3.52-3.82,6.47-7.64,6.47Zm-6.02-26.92c.5,0,.98,.17,1.38,.48,.51,.4,.81,.99,.85,1.63,0,0,.44,8.6,.54,16.05,.01,1.9,.57,4.18,3.12,4.3,1.39,.02,3.24-1.17,3.34-2.38,.47-5.78,.42-12.18,.37-18.37-.02-2.08-.03-4.14-.03-6.19,0-1.41-.4-2.53-1.14-3.23-.86-.81-2.07-.94-2.91-.86-3.96,.25-12.77,1.16-12.78,1.16-.36,.04-.73-.01-1.07-.15-.43,1.65-1.42,3.17-2.88,4.23-1.22,.88-3.36,1.66-5.67,1.22-1.9-.36-3.49-1.46-4.6-3.19l-3.56-5.65c-.43,1.47-.85,2.99-1.07,4.06-.61,2.82,.21,4.84,1.01,6.04,1.13,1.68,2.77,2.65,3.83,2.83,4.34,.8,16.55-1.14,20.88-1.95,.14-.02,.28-.04,.41-.04Zm-30.6-2.73l-10.76,10.77c-.13,.12-.26,.23-.41,.32l-12.06,7.41c-1.22,1.11-1.43,3.32-.28,4.82,.56,.72,1.34,1.18,2.21,1.28,.85,.06,1.7-.16,2.38-.72l15.51-9.49,8.22-6.94c-1.15-.82-2.2-1.88-3.02-3.11-.71-1.07-1.44-2.53-1.78-4.36Zm18.8-37.52c-2.75,0-5.38,1.14-6.38,2.98l-7.84,13.82c-.21,.37-.62,1.36,.06,2.72l8.23,13.05c.43,.68,.99,1.08,1.68,1.21,.91,.18,1.85-.18,2.25-.46,1.36-.98,1.7-2.94,.76-4.36l-5.13-8.79c-.43-.74-.4-1.66,.08-2.37l5.39-7.94,3.68,2.5-4.6,6.78,4.36,7.48c.13,.19,.24,.39,.35,.58,.55-2.05,1.28-4.63,2.04-7.3,1.24-4.34,2.63-9.26,2.89-10.8,.97-5.76-2.34-7.94-5.29-8.75-.82-.23-1.68-.33-2.52-.33Zm-22.91,33.84H18.89v-4.45h8.07c.44-1.62,1.12-4.3,1.56-6.98-2.17,.43-4.44,.59-5.57,.59-6.8,0-13.55-3.11-17.6-8.11C1.54,55.05-.29,49.63,.04,44.06c.26-4.53,2.07-9.11,5-12.74-.59-5.08,.89-9.36,4.53-13.03,.03-3.61,1.28-8.45,4.78-12.32C17.92,2.01,23.21,.02,29.2,0c4.97,.08,10.01,2.59,13.45,6.64,1.14-.18,2.32-.28,3.39-.28,3.44,0,9.98,.89,15.14,6.86,4.22,4.89,5.63,11.29,3.87,17.57l-4.29-1.2c.64-2.28,1.63-8.15-2.95-13.46-4-4.62-9.09-5.31-11.77-5.31-1.18,0-2.6,.16-3.79,.44-.87,.19-1.78-.14-2.3-.86-2.62-3.6-6.77-5.87-10.82-5.94-4.94-.19-8.79,1.51-11.48,4.49-2.93,3.25-3.78,7.49-3.61,10.13,.04,.67-.22,1.32-.72,1.78-4.27,3.91-4.24,7.8-3.74,10.77,.12,.67-.08,1.35-.53,1.85-2.68,3-4.35,6.95-4.57,10.84-.26,4.45,1.23,8.8,4.32,12.6,3.23,3.99,8.65,6.47,14.15,6.47,1.32,0,4.12-.27,6.02-.81v-.07c-1.14-.85-2.63-1.88-3.59-2.46-.85-.52-1.24-1.53-.99-2.48l1.41-5.15c.16-.59,.56-1.09,1.1-1.38,.32-.17,.67-.26,1.02-.26-1.31-4.41-4.09-11.21-9.1-18.92-.63-.97-.42-2.25,.49-2.97l4.31-3.38c.94-.74,2.32-.59,3.09,.34,2.73,3.32,6.39,9.08,9.4,14.71,1.84-3.23,4.63-7.52,8.1-11.53,.42-.48,1.01-.76,1.65-.77,.71,0,1.25,.26,1.68,.73l3.73,4.1c.64,.7,.76,1.73,.3,2.57-10.11,18.41-8.1,33.78-7.09,38.59h5.14v4.45Zm-18.06-4.45h8.36c-1.17-6.12-2.5-21.17,6.99-39.32l-.95-1.04c-3.79,4.78-6.71,9.91-7.86,12.46-.35,.79-1.13,1.3-2,1.31-.82,.05-1.66-.48-2.03-1.26-2.98-6.18-6.75-12.27-9.48-15.99l-.96,.75c7.83,12.61,9.38,21.55,9.54,22.57,.12,.78-.18,1.56-.79,2.06-.6,.5-1.43,.64-2.17,.37-.17-.06-.44-.16-.76-.27l-.35,1.29c1.19,.8,2.53,1.76,3.41,2.46,.48,.38,.79,.95,.84,1.56,.32,3.91-.92,9.63-1.8,13.04Zm50.34-33.75c-7.04,0-12.77-5.93-12.77-13.2s5.73-13.2,12.77-13.2,12.77,5.92,12.77,13.2-5.73,13.2-12.77,13.2Zm0-21.95c-4.59,0-8.32,3.92-8.32,8.75s3.73,8.75,8.32,8.75,8.32-3.93,8.32-8.75-3.73-8.75-8.32-8.75Z"/></g></g></svg>