<?xml version="1.0" encoding="UTF-8"?><svg xmlns="http://www.w3.org/2000/svg" viewBox="0 0 84.11 76.95"><defs><style>.d{fill:#4d4545;}</style></defs><g id="a"/><g id="b"><g id="c"><path class="d" d="M73.03,76.95H11.08c-1.37,0-2.47-1.11-2.47-2.47V36.76c0-1.37,1.11-2.47,2.47-2.47s2.47,1.11,2.47,2.47v35.25h57.01V36.76c0-1.37,1.11-2.47,2.47-2.47s2.47,1.11,2.47,2.47v37.72c0,1.37-1.11,2.47-2.47,2.47Zm-22.37-10.29h-17.21c-5.16,0-9.35-4.18-9.35-9.33v-13.72c0-2.31,1.88-4.19,4.19-4.19h2.69v-7.81c0-6.09,4.97-11.05,11.08-11.05s11.08,4.96,11.08,11.05v7.81h2.69c2.31,0,4.19,1.88,4.19,4.19v13.72c0,5.14-4.2,9.33-9.35,9.33Zm-21.62-22.29v12.96c0,2.41,1.98,4.38,4.41,4.38h17.21c2.43,0,4.41-1.97,4.41-4.38v-12.96H29.04Zm6.88-4.95h12.27v-7.81c0-3.36-2.75-6.1-6.13-6.1s-6.13,2.74-6.13,6.1v7.81Zm45.72-1.91c-.56,0-1.11-.18-1.57-.57L42.06,5.67,4.04,36.96c-1.05,.86-2.61,.72-3.48-.34-.87-1.05-.72-2.61,.34-3.48L40.49,.57c.91-.75,2.23-.75,3.14,0l39.58,32.58c1.06,.86,1.21,2.42,.34,3.48-.49,.59-1.2,.9-1.91,.9Zm-12.05-17.15c-1.37,0-2.47-1.11-2.47-2.47V6.66h-5.38v2.67c0,1.37-1.11,2.47-2.47,2.47s-2.47-1.11-2.47-2.47V4.19c0-1.37,1.11-2.47,2.47-2.47h10.33c1.37,0,2.47,1.11,2.47,2.47v13.71c0,1.37-1.11,2.47-2.47,2.47Z"/></g></g></svg>