<svg width="73" height="70" viewBox="0 0 73 70" fill="none" xmlns="http://www.w3.org/2000/svg">
<mask id="mask0_103_1029" style="mask-type:luminance" maskUnits="userSpaceOnUse" x="0" y="0" width="73" height="70">
<path d="M0.761963 0H72.1905V69.9125H0.761963V0Z" fill="white"/>
</mask>
<g mask="url(#mask0_103_1029)">
<path d="M36.5121 1.71854C34.4259 1.71854 32.5668 2.619 31.2522 3.99838C29.9377 5.37955 29.079 7.33113 29.079 9.44594C29.079 10.0164 29.1507 10.4971 29.2361 11.0675C29.4648 10.7374 29.7806 10.4217 30.0077 10.0917C30.8664 9.19123 31.8668 8.54549 33.0243 8.06477C34.0247 7.5697 35.2692 7.33113 36.5121 7.33113C37.7566 7.33113 38.9141 7.5697 39.9999 8.06477C41.0856 8.56163 42.0877 9.20558 42.9447 10.0917C43.2589 10.4217 43.4876 10.7374 43.7164 11.0675C43.7881 10.5724 43.8735 10.0164 43.8735 9.44594C43.8735 7.33113 43.0164 5.37955 41.7002 3.99838C40.3857 2.619 38.5283 1.71854 36.5121 1.71854ZM44.8739 56.7449V56.8202C45.3468 57.961 45.5755 59.1754 45.5755 60.3915C45.5755 62.9871 44.488 65.3422 42.8594 67.1431C41.229 68.8544 38.9858 69.9055 36.5121 69.9055C33.953 69.9055 31.7098 68.8544 30.0794 67.1431C28.4508 65.3584 27.4503 63.0014 27.4503 60.3915C27.4503 59.1754 27.6791 57.9449 28.0649 56.8202V56.7449H28.1366C28.1366 56.6695 28.2066 56.5045 28.2066 56.4148C28.7512 55.1987 29.6082 54.0579 30.5369 53.1574C31.1515 52.6623 33.0106 50.7126 35.3409 48.3556C30.624 43.4049 24.8059 37.2219 24.1913 36.4865C23.9626 36.3214 23.0339 35.8407 21.7176 35.751C21.4889 35.751 21.2464 35.751 21.0177 35.751C18.0011 35.9914 13.3558 38.5134 8.86764 50.2175C11.7272 50.0525 19.0886 48.8363 22.3476 41.0336L23.8192 41.769C19.3173 52.6785 7.62481 51.9574 7.62481 51.9574H6.46564L6.85146 50.8166C8.25306 46.9906 9.71099 43.9896 11.1126 41.708C9.25347 41.0641 7.55311 40.2389 5.99445 39.2632C4.20703 38.212 2.59204 36.9062 1.2775 35.5268L0.734619 34.9564L1.2775 34.3107C2.59204 32.9295 4.2224 31.7151 5.99445 30.5743C7.53775 29.6739 9.25347 28.8631 11.1126 28.1277C9.71099 25.8478 8.25306 22.8469 6.85146 19.0191L6.46564 17.8801H7.62481C7.62481 17.8801 19.3173 17.2343 23.8055 28.1277L22.3322 28.7734C19.0732 20.9707 11.7272 19.7545 8.85399 19.5895C13.3422 31.2954 17.9874 33.8909 21.004 34.056C21.2328 34.056 21.4752 34.056 21.704 34.056C23.0185 33.9806 23.9472 33.4855 24.176 33.3205C24.7905 32.5851 30.6086 26.4936 35.3256 21.5411C32.9953 19.0944 31.1379 17.1446 30.5233 16.6639C29.5946 15.7635 28.7359 14.6388 28.193 13.4083C28.193 13.333 28.1213 13.1679 28.1213 13.0783H28.0496C27.6637 11.9374 27.435 10.7213 27.435 9.41545C27.435 6.81992 28.4354 4.46475 30.0657 2.75353C31.6944 1.04231 33.953 0.00732422 36.5121 0.00732422C38.9858 0.00732422 41.229 1.05845 42.8594 2.76788C44.488 4.4791 45.5755 6.83427 45.5755 9.43159C45.5755 10.7374 45.3468 11.9518 44.8739 13.0926C44.8022 13.1679 44.7168 13.333 44.7168 13.4226C44.1739 14.6388 43.4023 15.7778 42.3865 16.6783C41.8436 17.1733 39.9145 19.1249 37.6695 21.5554C42.3165 26.5079 48.1192 32.6156 48.7475 33.3349C49.0633 33.4999 49.9066 33.9806 51.2212 34.0703C51.4499 34.0703 51.6924 34.0703 51.9211 34.0703C54.9377 33.9053 59.583 31.3097 64.0711 19.6056C61.2116 19.7707 53.8502 20.985 50.5912 28.7896L49.1196 28.1438C53.6078 17.2487 65.3003 17.8944 65.3003 17.8944H66.4578L66.072 19.0352C64.6721 22.8613 63.2858 25.8622 61.8125 28.1438C63.6717 28.8792 65.372 29.6882 66.9307 30.5887C68.7881 31.7295 70.3314 32.9456 71.6476 34.3268L72.1905 34.9708L71.6476 35.5412C70.3314 36.9223 68.7881 38.2282 66.9307 39.2775C65.3857 40.2533 63.6717 41.0641 61.8125 41.7242C63.2858 44.004 64.6721 47.0067 66.072 50.8327L66.4578 51.9735H65.3003C65.3003 51.9735 53.6078 52.709 49.1196 41.8138L50.5912 41.0784C53.8502 48.8812 61.198 50.0973 64.0711 50.2623C59.583 38.5582 54.9377 36.0362 51.9211 35.7959C51.6924 35.7959 51.4499 35.7959 51.2212 35.7959C49.9066 35.8712 49.0479 36.3663 48.7475 36.5313C48.1329 37.2667 42.3165 43.4354 37.6695 48.4022C39.9145 50.7574 41.859 52.709 42.3865 53.204C43.3869 54.1045 44.1739 55.2292 44.7168 56.4597C44.7168 56.5045 44.7885 56.6695 44.8739 56.7449ZM43.7164 58.8597C43.4876 59.1915 43.2452 59.4301 42.9447 59.7601C42.0877 60.6606 41.0856 61.3817 39.9999 61.8767C38.9141 62.2821 37.7566 62.6122 36.5121 62.6122C35.2692 62.6122 34.0401 62.2821 33.0243 61.8767C31.8668 61.3817 30.8511 60.6606 30.0077 59.7601C29.7806 59.4301 29.4648 59.1915 29.2361 58.8597C29.1644 59.3565 29.079 59.8355 29.079 60.4059C29.079 62.5225 29.9377 64.4723 31.2522 65.8534C32.5668 67.3243 34.4259 68.1351 36.5121 68.1351C38.5283 68.1351 40.3857 67.3243 41.7002 65.8534C43.0164 64.4723 43.8735 62.5225 43.8735 60.4059C43.8598 59.8355 43.7881 59.3404 43.7164 58.8597ZM29.9223 56.7449C29.994 56.9852 30.1511 57.1503 30.3082 57.3906C30.5369 57.796 30.8511 58.1996 31.1669 58.5296C31.8668 59.2651 32.7102 59.8355 33.6389 60.2409C34.4976 60.6462 35.4263 60.8113 36.4984 60.8113C37.4988 60.8113 38.4275 60.6462 39.3562 60.2409C40.215 59.8355 41.0583 59.2651 41.7583 58.5296C42.0724 58.1996 42.3728 57.796 42.687 57.3906C42.7587 57.1503 42.9157 56.9852 43.0011 56.7449C42.6153 55.9341 42.0007 55.1233 41.3007 54.4632C40.6861 53.9682 38.8287 52.0184 36.4984 49.5861C34.0964 52.0327 32.239 53.9843 31.6244 54.4632C30.9381 55.1233 30.3952 55.9341 29.9223 56.7449ZM29.9223 13.0926C30.3952 13.9034 30.9228 14.7123 31.6244 15.3742C32.239 15.8693 34.0964 17.8944 36.4984 20.3249C38.8287 17.8047 40.6861 15.8532 41.3007 15.3742C42.0007 14.7285 42.6153 13.9034 43.0011 13.0926C42.9311 12.8522 42.7723 12.6872 42.687 12.4469C42.3728 12.0415 42.0724 11.7114 41.7583 11.306C41.0583 10.5724 40.215 10.002 39.3562 9.59662C38.4275 9.26657 37.4988 9.02621 36.4984 9.02621C35.4109 9.02621 34.4822 9.26657 33.6389 9.59662C32.7102 10.002 31.8532 10.5724 31.1669 11.306C30.8511 11.7114 30.5523 12.0415 30.3082 12.4469C30.1665 12.6872 30.0077 12.8522 29.9223 13.0926ZM36.5121 28.2191C38.2141 28.2191 39.8428 28.9546 41.0003 30.1689C42.1577 31.3851 42.8594 33.0963 42.8594 34.9708C42.8594 36.847 42.1577 38.4667 41.0003 39.6829C39.8428 40.899 38.2141 41.6345 36.5121 41.6345C34.7264 41.6345 33.1097 40.899 31.9385 39.6829C30.7811 38.4667 30.0794 36.8327 30.0794 34.9708C30.0794 33.0963 30.7811 31.3994 31.9385 30.1689C33.096 28.9384 34.7264 28.2191 36.5121 28.2191ZM39.8428 31.3851C38.9858 30.4846 37.8266 29.9142 36.5121 29.9142C35.1975 29.9142 33.953 30.4846 33.1097 31.3851C32.2663 32.2855 31.7098 33.5752 31.7098 34.9564C31.7098 36.3376 32.2527 37.5519 33.1097 38.4524C33.9684 39.3528 35.1975 39.9233 36.5121 39.9233C37.8266 39.9233 38.9858 39.3528 39.8428 38.4524C40.6998 37.5519 41.2444 36.3376 41.2444 34.9564C41.229 33.5752 40.6861 32.2855 39.8428 31.3851ZM12.113 29.6739C10.1822 30.3196 8.39646 31.1447 6.85146 32.1205C5.45157 32.9295 4.13704 33.9053 3.06493 34.9708C4.15069 35.9465 5.46523 36.9223 6.85146 37.8228C8.39646 38.7232 10.1822 39.5322 12.113 40.2676C14.0421 37.4174 15.9866 35.7959 17.7587 34.9869C15.9866 34.0703 14.0558 32.4344 12.113 29.6739ZM60.8975 40.2389C62.7566 39.5035 64.5423 38.6928 66.0873 37.7923C67.5589 36.8918 68.8018 35.9161 69.8739 34.9421C68.7881 33.8909 67.5453 32.9151 66.0873 32.09C64.5423 31.1142 62.7566 30.3035 60.8975 29.6434C58.883 32.4057 56.9522 34.0416 55.1665 34.9259C56.9522 35.7815 58.883 37.4013 60.8975 40.2389ZM26.5916 49.8426C26.5916 51.0569 26.2775 52.4381 25.6629 53.744C25.0483 54.9583 24.1913 56.1888 23.1039 57.2399C21.9464 58.2911 20.7753 59.1162 19.5461 59.5951C18.2298 60.1655 16.987 60.4059 15.8295 60.2409L15.0562 60.1655V59.4301C15.0562 58.2157 15.372 56.8346 15.9866 55.5287C16.6012 54.3144 17.4582 53.0839 18.544 52.0327C19.6314 50.9816 20.8743 50.1565 22.1034 49.6776C23.348 49.1072 24.6625 48.8668 25.82 49.0318L26.5199 49.1072L26.5916 49.8426ZM24.1913 52.9332C24.5054 52.1978 24.7342 51.4623 24.8913 50.743C24.1913 50.743 23.4197 50.9816 22.718 51.3135C21.6323 51.717 20.6318 52.3628 19.6161 53.3386C18.6874 54.239 17.9157 55.2884 17.4445 56.3395C17.0587 57.0749 16.83 57.8104 16.7429 58.5296C17.4445 58.5296 18.1445 58.2911 18.9161 58.0346C19.9165 57.5395 21.004 56.8955 21.9327 55.9198C22.9622 55.0337 23.6484 53.9843 24.1913 52.9332ZM48.1192 50.7269C48.1909 51.4623 48.4333 52.1978 48.7338 52.9188C49.2767 53.9682 50.0483 55.0337 50.977 55.9198C51.9075 56.8955 52.9932 57.5395 53.9936 58.0346C54.7653 58.2749 55.4669 58.5296 56.1669 58.5296C56.0952 57.796 55.8528 57.0606 55.4669 56.3395C54.994 55.2884 54.2224 54.2229 53.2937 53.3386C52.2933 52.3628 51.2775 51.717 50.1917 51.3135C49.5191 50.9816 48.7475 50.7269 48.1192 50.7269ZM47.2759 53.744C46.6613 52.4381 46.3472 51.0569 46.4189 49.8426V49.1072L47.1188 49.0318C48.2763 48.8668 49.5908 49.1072 50.8353 49.6776C52.0782 50.1726 53.3074 50.9816 54.3948 52.0327C55.5523 53.0839 56.4093 54.3144 56.9522 55.5287C57.5668 56.8346 57.8826 58.2157 57.8826 59.4301V60.1655L57.181 60.2409C56.0235 60.4059 54.7089 60.1655 53.3927 59.5951C52.2352 59.1 50.9924 58.2911 49.8349 57.2399C48.7475 56.1745 47.8905 54.9583 47.2759 53.744ZM24.8196 34.9564C25.0483 35.0317 25.1337 35.1214 25.2054 35.1214L25.2771 35.2865C25.3488 35.2865 31.5527 41.873 36.4984 47.0659C41.4578 41.8587 47.648 35.2865 47.648 35.2865L47.8051 35.1214C47.8051 35.1214 47.8768 35.0461 48.1192 34.9564C47.8905 34.7914 47.8051 34.716 47.8051 34.716L47.648 34.6407C47.648 34.5654 41.4578 27.9788 36.4984 22.7716C31.5373 27.9788 25.3488 34.551 25.2771 34.6407L25.2054 34.716C25.12 34.716 25.0483 34.8057 24.8196 34.9564ZM24.8913 19.1106C24.7342 18.4648 24.5054 17.6397 24.1913 16.9186C23.6484 15.8693 22.9468 14.8935 21.9464 13.9177C21.0177 13.0173 19.9319 12.298 18.9298 11.8926C18.1581 11.5625 17.4582 11.3975 16.7582 11.3222C16.83 12.0576 17.0724 12.793 17.4582 13.5123C17.9294 14.5635 18.7027 15.6289 19.6314 16.6047C20.6318 17.5052 21.6459 18.1491 22.7334 18.6299C23.4197 18.9456 24.1913 19.1106 24.8913 19.1106ZM25.6629 16.1832C26.2775 17.489 26.5916 18.7805 26.5916 20.011L26.5199 20.82H25.82C24.6625 20.985 23.348 20.7465 22.1034 20.2496C20.8606 19.681 19.6314 18.8702 18.544 17.8047C17.4582 16.7393 16.6148 15.5231 15.9866 14.3088C15.372 13.0029 15.0562 11.7114 15.0562 10.4809V9.67195L15.8295 9.59662C16.987 9.52128 18.2298 9.67195 19.5461 10.2424C20.7889 10.7374 21.9464 11.5464 23.1039 12.5975C24.1913 13.7383 25.0483 14.8792 25.6629 16.1832ZM46.4189 20.011C46.3472 18.7949 46.6459 17.489 47.2759 16.1832C47.8905 14.8792 48.7475 13.7383 49.8349 12.6119C50.9924 11.5625 52.2352 10.7374 53.3927 10.2567C54.7089 9.6863 56.0235 9.52128 57.181 9.61097L57.8826 9.6863V10.4971C57.8826 11.7114 57.5668 13.0173 56.9522 14.3231C56.4093 15.5393 55.5523 16.7698 54.3948 17.8191C53.3074 18.8702 52.0645 19.6953 50.8353 20.2657C49.5908 20.7608 48.2763 21.0012 47.1188 20.8361H46.4189V20.011ZM48.7475 16.9186C48.4333 17.6541 48.2046 18.4648 48.1329 19.1106C48.7475 19.1106 49.5345 18.9456 50.2208 18.6155C51.3065 18.1204 52.3069 17.4747 53.3227 16.5886C54.2514 15.6128 55.0231 14.5635 55.4943 13.498C55.8801 12.7626 56.1088 12.0271 56.1959 11.306C55.4943 11.3814 54.7943 11.5464 54.0227 11.8765C53.0223 12.2818 51.9348 13.0173 51.0061 13.9034C50.0637 14.8792 49.2903 15.8532 48.7475 16.9186Z" fill="#A88F61"/>
</g>
</svg>
