<svg width="19" height="18" viewBox="0 0 19 18" fill="none" xmlns="http://www.w3.org/2000/svg">
<g clip-path="url(#clip0_1_2762)">
<path d="M15.5 17.025C15.425 17.025 15.35 17.025 15.35 17.025C12.95 16.8 10.625 15.975 8.6 14.625C6.725 13.425 5.15 11.85 3.95 9.97503C2.675 7.95002 1.85 5.62502 1.55 3.22502C1.475 2.62502 1.625 2.10002 2 1.65002C2.375 1.20002 2.825 0.975024 3.425 0.900024C3.5 0.900024 3.575 0.900024 3.575 0.900024H5.825C6.875 0.900024 7.7 1.65002 7.85 2.70002C7.925 3.37502 8.075 4.05002 8.375 4.72502C8.675 5.47502 8.45 6.30002 7.925 6.90002L7.25 7.50002C8.15 9.00002 9.425 10.275 10.925 11.175L11.6 10.5C12.2 9.90002 13.025 9.75002 13.775 10.05C14.45 10.275 15.05 10.425 15.725 10.575C16.775 10.725 17.525 11.625 17.525 12.675V14.925C17.525 15.45 17.3 15.975 16.925 16.35C16.55 16.8 16.025 17.025 15.5 17.025ZM5.825 2.10002H3.5C3.275 2.10002 3.05 2.25002 2.9 2.40002C2.675 2.62502 2.6 2.85002 2.675 3.07502C2.9 5.25002 3.65 7.42502 4.925 9.30002C6.05 11.025 7.55 12.525 9.275 13.65C11.15 14.85 13.325 15.6 15.5 15.9H15.575C15.8 15.9 16.1 15.825 16.25 15.6C16.4 15.45 16.55 15.15 16.55 14.925V12.675C16.55 12.225 16.25 11.775 15.725 11.7C14.975 11.625 14.225 11.4 13.475 11.175C13.1 11.025 12.725 11.1 12.5 11.4L11.525 12.375C11.375 12.525 11.075 12.6 10.85 12.45C8.9 11.325 7.25 9.67502 6.125 7.72502C5.975 7.50002 5.975 7.20002 6.2 7.05002L7.175 6.07502C7.4 5.85002 7.475 5.40002 7.4 5.10002C7.1 4.35002 6.95 3.60002 6.875 2.85002C6.725 2.40002 6.275 2.10002 5.825 2.10002ZM14.75 7.27502C14.45 7.27502 14.225 7.12502 14.225 6.82502C14 5.55002 12.95 4.57502 11.675 4.27502C11.375 4.20002 11.15 3.90002 11.225 3.60002C11.3 3.30002 11.6 3.07502 11.9 3.15002C13.625 3.52502 14.975 4.80002 15.275 6.52502C15.35 6.82502 15.125 7.12502 14.825 7.20002C14.825 7.27502 14.75 7.27502 14.75 7.27502ZM17.75 7.27502C17.45 7.27502 17.225 7.05002 17.225 6.75002C16.925 3.82502 14.675 1.57502 11.75 1.27502C11.45 1.27502 11.225 0.975024 11.225 0.675024C11.225 0.375024 11.525 0.150024 11.825 0.150024C15.275 0.525024 17.9 3.15002 18.275 6.60002C18.35 6.97502 18.125 7.20002 17.75 7.27502C17.825 7.27502 17.75 7.27502 17.75 7.27502Z" fill="#FBFBFB"/>
</g>
<defs>
<clipPath id="clip0_1_2762">
<rect width="18" height="18" fill="white" transform="translate(0.5)"/>
</clipPath>
</defs>
</svg>
